{"accessors" : [{"bufferView" : 0, "byteOffset" : 0, "componentType" : 5123, "count" : 3456, "type" : "SCALAR", "max" : [2449], "min" : [0]}, {"bufferView" : 1, "byteOffset" : 0, "componentType" : 5126, "count" : 2450, "type" : "VEC3", "max" : [24.847400665283203, 24.421499252319336, 0.4000000059604645], "min" : [-24.847400665283203, -25.2677001953125, 0], "name" : "POSITION"}, {"bufferView" : 0, "byteOffset" : 6912, "componentType" : 5123, "count" : 53568, "type" : "SCALAR", "max" : [36989], "min" : [0]}, {"bufferView" : 2, "byteOffset" : 0, "componentType" : 5126, "count" : 36990, "type" : "VEC3", "max" : [25.591299057006836, 25.03529930114746, 36.40079879760742], "min" : [-25.591299057006836, -26.147300720214844, 0.4007999897003174], "name" : "POSITION"}, {"bufferView" : 0, "byteOffset" : 114048, "componentType" : 5123, "count" : 64512, "type" : "SCALAR", "max" : [44691], "min" : [0]}, {"bufferView" : 3, "byteOffset" : 0, "componentType" : 5126, "count" : 44692, "type" : "VEC3", "max" : [28.805200576782227, 29.99090003967285, 80.87249755859375], "min" : [-28.805200576782227, -23.617399215698242, 35.53369903564453], "name" : "POSITION"}, {"bufferView" : 0, "byteOffset" : 243072, "componentType" : 5123, "count" : 19584, "type" : "SCALAR", "max" : [13363], "min" : [0]}, {"bufferView" : 4, "byteOffset" : 0, "componentType" : 5126, "count" : 13364, "type" : "VEC3", "max" : [24.686800003051758, 16.36050033569336, 48.263999938964844], "min" : [-24.686800003051758, -29.89550018310547, 35.53219985961914], "name" : "POSITION"}], "asset" : {"generator" : "Aspose.3D 23.4.0", "version" : "2.0"}, "buffers" : [{"uri" : "data:application/octet-stream;base64,", "byteLength" : 1975700}], "bufferViews" : [{"buffer" : 0, "byteOffset" : 0, "byteLength" : 282240, "target" : 34963}, {"buffer" : 0, "byteOffset" : 282244, "byteLength" : 41472, "byteStride" : 12, "target" : 34962}, {"buffer" : 0, "byteOffset" : 323720, "byteLength" : 642816, "byteStride" : 12, "target" : 34962}, {"buffer" : 0, "byteOffset" : 966540, "byteLength" : 774144, "byteStride" : 12, "target" : 34962}, {"buffer" : 0, "byteOffset" : 1740688, "byteLength" : 235008, "byteStride" : 12, "target" : 34962}], "materials" : [{"name" : "COL2", "pbrMetallicRoughness" : {"baseColorFactor" : [0.4980392156862745, 0.30980392156862746, 0.24705882352941178, 1], "metallicFactor" : 0, "roughnessFactor" : 0}, "emissiveFactor" : [0, 0, 0], "alphaMode" : "OPAQUE", "doubleSided" : false}, {"name" : "COL1", "pbrMetallicRoughness" : {"baseColorFactor" : [0.4980392156862745, 0.37254901960784315, 0.24705882352941178, 1], "metallicFactor" : 0, "roughnessFactor" : 0}, "emissiveFactor" : [0, 0, 0], "alphaMode" : "OPAQUE", "doubleSided" : false}, {"name" : "COL0", "pbrMetallicRoughness" : {"baseColorFactor" : [0.2, 0.2, 0.2, 1], "metallicFactor" : 0, "roughnessFactor" : 0}, "emissiveFactor" : [0, 0, 0], "alphaMode" : "OPAQUE", "doubleSided" : false}, {"name" : "COL0", "pbrMetallicRoughness" : {"baseColorFactor" : [0.2, 0.2, 0.2, 1], "metallicFactor" : 0, "roughnessFactor" : 0}, "emissiveFactor" : [0, 0, 0], "alphaMode" : "OPAQUE", "doubleSided" : false}], "meshes" : [{"primitives" : [{"attributes" : {"POSITION" : 1}, "indices" : 0, "material" : 0, "mode" : 4}], "name" : "M7"}, {"primitives" : [{"attributes" : {"POSITION" : 3}, "indices" : 2, "material" : 1, "mode" : 4}], "name" : "M6"}, {"primitives" : [{"attributes" : {"POSITION" : 5}, "indices" : 4, "material" : 2, "mode" : 4}], "name" : "M5"}, {"primitives" : [{"attributes" : {"POSITION" : 7}, "indices" : 6, "material" : 3, "mode" : 4}], "name" : "M4"}], "nodes" : [{"matrix" : [-1, 0, 0, 0, 0, 0, 1, 0, 0, 1, 0, 0, 0, 0, 0, 1], "mesh" : 0, "name" : "M7"}, {"matrix" : [-1, 0, 0, 0, 0, 0, 1, 0, 0, 1, 0, 0, 0, 0, 0, 1], "mesh" : 1, "name" : "M6"}, {"matrix" : [-1, 0, 0, 0, 0, 0, 1, 0, 0, 1, 0, 0, 0, 0, 0, 1], "mesh" : 2, "name" : "M5"}, {"matrix" : [-1, 0, 0, 0, 0, 0, 1, 0, 0, 1, 0, 0, 0, 0, 0, 1], "mesh" : 3, "name" : "M4"}], "scene" : 0, "scenes" : [{"nodes" : [0, 1, 2, 3]}]}